{"title":"The Big Bang Theory S04e05 - The Desperation Emanation [XviD - E","uid":5915112,"size":183697344,"categoryP":"video","categoryS":"tv_shows","magnet":"?xt=urn:btih:37256b165c3d527e3cb57e30bfe1f1f0f13f9d79&amp;dn=The+Big+Bang+Theory+S04e05+-+The+Desperation+Emanation+%5BXviD+-+E&amp;tr=udp%3A%2F%2Ftracker.openbittorrent.com%3A80&amp;tr=udp%3A%2F%2Fopen.demonii.com%3A1337&amp;tr=udp%3A%2F%2Ftracker.coppersurfer.tk%3A6969&amp;tr=udp%3A%2F%2Fexodus.desync.com%3A6969","seeders":1,"leechers":0,"uploader":"Cer8one","files":1,"time":1288189648,"description":"info: \n\nThe Big Bang Theory S04e05 - The Desperation Emanation [XviD - Eng Mp3] HDTVRip by FQM \n\n\n\nReport\t\n\t\t\n\t\n\t\t\nGeneral\nComplete name : K:\\\\Download Completi\\\\The.Big.Bang.Theory.S04E05.HDTV.XviD-FQM.avi\nFormat : AVI\nFormat/Info : Audio Video Interleave\nFile size : 175 MiB\nDuration : 20mn 13s\nOverall bit rate : 1 211 Kbps\nWriting application : transcode-1.0.4\n\nVideo\nID : 0\nFormat : MPEG-4 Visual\nFormat profile : Advanced Simple@L5\nFormat settings, BVOP : Yes\nFormat settings, QPel : No\nFormat settings, GMC : No warppoints\nFormat settings, Matrix : Default (H.263)\nCodec ID : XVID\nCodec ID/Hint : XviD\nDuration : 20mn 13s\nBit rate : 1 036 Kbps\nWidth : 624 pixels\nHeight : 352 pixels\nDisplay aspect ratio : 16:9\nFrame rate : 23.976 fps\nColor space : YUV\nChroma subsampling : 4:2:0\nBit depth : 8 bits\nScan type : Progressive\nBits/(Pixel*Frame) : 0.197\nStream size : 150 MiB (86%)\nWriting library : XviD 1.2.1 (UTC 2008-12-04)\n\nAudio\nID : 1\nFormat : MPEG Audio\nFormat version : Version 1\nFormat profile : Layer 3\nCodec ID : 55\nCodec ID/Hint : MP3\nDuration : 20mn 13s\nBit rate mode : Variable\nBit rate : 128 Kbps\nChannel(s) : 2 channels\nSampling rate : 48.0 KHz\nBit depth : 16 bits\nStream size : 23.5 MiB (13%)\nAlignment : Aligned on interleaves\nInterleave, duration : 24 ms (0.58 video frame)","torrent":{"xt":"urn:btih:37256b165c3d527e3cb57e30bfe1f1f0f13f9d79","amp;dn":"The+Big+Bang+Theory+S04e05+-+The+Desperation+Emanation+%5BXviD+-+E","amp;tr":["udp%3A%2F%2Ftracker.openbittorrent.com%3A80","udp%3A%2F%2Fopen.demonii.com%3A1337","udp%3A%2F%2Ftracker.coppersurfer.tk%3A6969","udp%3A%2F%2Fexodus.desync.com%3A6969"],"infoHash":"37256b165c3d527e3cb57e30bfe1f1f0f13f9d79","infoHashBuffer":{"type":"Buffer","data":[55,37,107,22,92,61,82,126,60,181,126,48,191,225,241,240,241,63,157,121]},"announce":[],"urlList":[]}}